<mxfile host="app.diagrams.net" modified="2020-03-22T13:33:32.942Z" agent="Mozilla/5.0 (Windows NT 10.0; Win64; x64) AppleWebKit/537.36 (KHTML, like Gecko) Chrome/80.0.3987.149 Safari/537.36" etag="PqkrCOfXIsfuEB5OmFLp" version="12.8.8" type="github">
  <diagram id="S-c4u68pvb39aPOEad-Y" name="Page-1">
    <mxGraphModel dx="1422" dy="839" grid="1" gridSize="10" guides="1" tooltips="1" connect="1" arrows="1" fold="1" page="1" pageScale="1" pageWidth="827" pageHeight="1169" math="0" shadow="0">
      <root>
        <mxCell id="0" />
        <mxCell id="1" parent="0" />
        <mxCell id="4B6pPSaDy_JO7CNS_ZNG-1" value="Human interaction" style="ellipse;whiteSpace=wrap;html=1;" vertex="1" parent="1">
          <mxGeometry x="140" y="220" width="120" height="50" as="geometry" />
        </mxCell>
        <mxCell id="4B6pPSaDy_JO7CNS_ZNG-2" value="Context Environment" style="ellipse;whiteSpace=wrap;html=1;" vertex="1" parent="1">
          <mxGeometry x="330" y="220" width="120" height="50" as="geometry" />
        </mxCell>
      </root>
    </mxGraphModel>
  </diagram>
</mxfile>
